<svg xmlns="http://www.w3.org/2000/svg" viewBox="0 0 145 53" enable-background="new 0 0 145 53"><g fill="#fff"><path d="m79.8 9.3h-10.2c-4.5 0-7 2.3-7 6.4v18c0 4.1 2.5 6.4 7 6.4h10.2c4.5 0 7-2.3 7-6.4v-4.8h-6.8v4.5c0 .4-.1.9-1.1.9h-8.6c-.9 0-1-.4-1-.9v-17.5c0-.5.1-.9 1-.9h8.7c1 0 1.1.4 1.1.9v4.5h6.8v-4.8c-.1-4.1-2.5-6.3-7.1-6.3"/><path d="m108.2 22.4l-8.5-1.7c-1.5-.3-1.6-.6-1.6-1.4v-3.4c0-.4.1-.9 1.1-.9h7.9c.9 0 1 .4 1 .9v3.6h6.7v-3.8c0-4.1-2.5-6.4-7-6.4h-9.4c-4.5 0-7 2.3-7 6.4v4.3c0 4.5 3.4 5.8 7.1 6.5l8.5 1.7c1.5.3 1.6.6 1.6 1.4v3.8c0 .5-.2.9-1 .9h-8.6c-.9 0-1-.4-1-.9v-3.9h-6.7v4.1c0 4.1 2.5 6.4 7 6.4h10c4.5 0 7-2.3 7-6.4v-4.7c0-4.7-3.6-5.8-7.1-6.5"/><path d="m137.4 9.3v24.1c0 .5-.1.9-1 .9h-9c-1 0-1.1-.4-1.1-.9v-24.1h-6.8v24.4c0 4.1 2.5 6.4 7 6.4h10.6c4.5 0 7-2.3 7-6.4v-24.4h-6.7"/></g><g fill="#cbc46e"><path d="m26.5 51.8c-14 0-25.3-11.4-25.3-25.3 0-14 11.4-25.3 25.3-25.3 14 0 25.3 11.4 25.3 25.3 0 13.9-11.4 25.3-25.3 25.3"/><path d="M26.5,52.9C11.9,52.9,0,41,0,26.4C0,11.9,11.9,0,26.5,0C41,0,52.9,11.9,52.9,26.4C52.9,41,41,52.9,26.5,52.9
				z"/></g><path d="m26.5 1.1c-14 0-25.4 11.4-25.4 25.3 0 14 11.4 25.4 25.4 25.4 14 0 25.3-11.4 25.3-25.4 0-13.9-11.4-25.3-25.3-25.3" fill="#004c23"/><g fill="#fff"><path d="m22.5 32.4c.7-1.1 1.4-3.4 1-4.4-.7-.3-1.5-.8-2-1.6-.5-.7-.8-1.5-1.7-1.8-.6-.2-1.2-.1-1.7.2-.8.4-1 1.5-1.1 2.3-.1 1.7.3 4.3 1 5.9.4 1.2 1.5 3.2 2.8 5.1-.4-2.9 1.3-4.9 1.7-5.7m-2.3-3.8c-.3-.6-1.2-.5-1.6-.7-.7-.4-.6-1.4 0-1.9.8-.7 2.9 1.6 2.4 3.5-.2 0-.3-.1-.8-.9"/><path d="m15.8 21.4c-.9.2-1.1 1.5-.4 2.3-.6-.1-1.6-.9-3.8-.2-.8.2-1.7.5-1.8 1.5-.1.7.9 1.5 1.5 2 .7.5 1.7.5 2.2 1.3.5.7.9 1.7 1 2.7.2 1.8.2 4.1 1.4 5.6.2-.9-.4-2.9-.4-5.5 0-1-.4-2.1-.9-2.8 1-.1 1.1.1 1.1-.3.1-.3-.1-.7-.3-1-.8-.9-1.8-.4-2.8-.7-.6-.2-1.6-.5-1.7-1.4 0-.6 1.9-.7 1.9-.7 1.5.1 1.3 1 2.4 1.1.9.1 1.2-.8 1.5-1.4.3-.9.8-2.8-.9-2.5"/><path d="m26.5 30.8c0 0 0 0 0 0-.9 0-1.3.7-2.1 1.5-1.3 1.4-4 5-2.1 6.7.9.8 2 1.3 3.6.8.4-.3.2-1.1 0-1.4-.7-1-1.9-.6-2.2-1.1-.3-.5-.1-.8.1-1.1.3-.3.7-.3 1.1-.2.7.2 1.1.4 1.5.8 0 0 0 0 0 0 .4-.4.9-.7 1.5-.8.4-.1.8-.2 1.1.2.2.2.4.6.1 1.1-.3.5-1.5.1-2.2 1.1-.2.4-.4 1.2-.1 1.4 1.6.5 2.7 0 3.6-.8 2-1.7-.7-5.3-2.1-6.7-.5-.7-1-1.4-1.8-1.5"/><path d="m41.6 23.4c-2.2-.7-3.2.2-3.8.2.7-.8.5-2.1-.4-2.3-1.7-.3-1.3 1.6-.8 2.5.3.5.6 1.5 1.5 1.4 1-.1.9-.9 2.4-1.1 0 0 1.9.1 1.9.7-.1.9-1 1.2-1.7 1.4-.9.3-2-.2-2.8.7-.2.3-.4.7-.3 1 .1.3.1.2 1.2.3-.6.7-.9 1.8-.9 2.8 0 2.6-.7 4.6-.4 5.5 1.3-1.5 1.2-3.8 1.4-5.6.1-.9.5-2 .9-2.7.5-.8 1.5-.8 2.2-1.3.6-.5 1.6-1.3 1.5-2-.3-.9-1.2-1.2-1.9-1.5"/><path d="m26.4 2.5c-13.2 0-24 10.8-24 24 0 13.2 10.8 24 24 24 13.2 0 24-10.8 24-24 0-13.3-10.8-24-24-24m14.2 41.8c0 0 0 0 0 0m.9-1.3c-.7.3-1.5.4-2.2.1-.6-.3-1-.8-1.1-1.5-.1-1 .4-2.1.9-2.8.6-1.1 2.1-3 3.8-4.2 2.4-1.8 4.1-2.3 3.5-2.7-.4-.3-2.7 1-3.2 1.2-2.6 1.3-6.1 5.1-6.5 8-.3 2 1.8 3.5 3.5 3.3-5.6 4.6-11.7 4.7-13.7 4.8-2 0-8.2-.2-13.7-4.8 1.7.2 3.8-1.3 3.5-3.3-.4-2.8-4-6.6-6.5-8-.5-.2-2.7-1.5-3.2-1.2-.6.4 1.1.9 3.5 2.7 1.7 1.3 3.2 3.1 3.8 4.2.5.8 1 1.9.9 2.8-.1.7-.5 1.2-1.1 1.5-.7.3-1.5.2-2.2-.1-1.1-.4-2.1-1.3-2.9-2.4-1.5-2-3-4.4-3.7-6.9.6 1.4 4.7 7.4 6.5 7.5 1.8.1-1.8-4.8-4.3-6.9-.6-.5-1.3-1.1-1.4-2-.1-.7.2-1.1.9-1.1 1 0 3.6 1.3 3.6 1.3-4.5-8.1 2.4-12.2-.5-14-1-.6-3.1 0-4.3.2 10.7-6.3 12.5 0 15.8 2.9.5.5 2.8 0 3.2-.5.6-.7 1.7-3.2.4-4.8-1.8-2.3-9.2-9-16.1-3.6 3.6-5.2 11.1-9 17.9-8.8 6.7-.2 14.2 3.6 17.8 8.8-6.9-5.4-14.3 1.3-16.2 3.6-1.3 1.6-.2 4.1.4 4.8.4.5 2.7 1 3.2.5 3.2-2.9 5.1-9.2 15.8-2.9-1.2-.2-3.3-.8-4.3-.2-2.9 1.8 4 5.9-.5 14 0 .1 2.6-1.3 3.7-1.3.7 0 1 .5.9 1.1-.1.9-.8 1.5-1.4 2-2.5 2.1-6.2 7-4.3 6.9 1.8-.1 5.9-6 6.5-7.5-.7 2.5-2.2 4.8-3.7 6.9-.9 1.1-1.9 2-3 2.4"/><path d="m34.8 24.8c-.5-.3-1.1-.4-1.7-.2-.9.2-1.1 1-1.7 1.8-.5.8-1.3 1.3-2 1.6-.4 1 .3 3.3 1 4.4.4.8 2 2.8 1.7 5.7 1.3-1.9 2.3-3.9 2.7-5.1.8-1.6 1.1-4.2 1-5.9 0-.8-.2-1.8-1-2.3m-.5 3.1c-.4.2-1.3.1-1.6.7-.5.8-.6.9-.8.8-.5-1.8 1.6-4.2 2.4-3.5.7.6.7 1.5 0 2"/><path d="m29.1 40.3c-.9.1-1.8.3-2.6.3-.8 0-1.7-.2-2.6-.3-.1 0-.2.1-.2.1-.5 1.1 2.4 1.7 2.8 1.7.4 0 3.4-.6 2.8-1.7 0 0-.1-.1-.2-.1"/></g></svg>