<svg xmlns="http://www.w3.org/2000/svg" viewBox="0 0 221 53" enable-background="new 0 0 221 53"><g fill="#fff"><path d="m64.2 23.3h4.2c1.8 0 2.9-.9 2.9-2.6v-1.9h-2.8v1.8c0 .2 0 .4-.4.4h-3.5c-.4 0-.4-.2-.4-.4v-7.1c0-.2.1-.4.4-.4h3.4c.4 0 .4.2.4.4v1.8h2.8v-1.9c0-1.7-1-2.6-2.9-2.6h-4.2c-1.8 0-2.9.9-2.9 2.6v7.3c.1 1.7 1.1 2.6 3 2.6"/><path d="m76.7 23.3h4.4c1.8 0 2.9-.9 2.9-2.6v-7.3c0-1.7-1-2.6-2.9-2.6h-4.4c-1.8 0-2.9.9-2.9 2.6v7.3c0 1.7 1.1 2.6 2.9 2.6m-.1-2.7v-7.1c0-.2.1-.4.4-.4h3.7c.4 0 .4.2.4.4v7.1c0 .2 0 .4-.4.4h-3.7c-.4 0-.4-.2-.4-.4"/><path d="m95.2 21h-5.8v-10.2h-2.8v12.5h8.6z"/><path d="m107.5 20.7v-7.3c0-1.7-1-2.6-2.9-2.6h-4.4c-1.8 0-2.9.9-2.9 2.6v7.3c0 1.7 1 2.6 2.9 2.6h4.4c1.9 0 2.9-.9 2.9-2.6m-2.7-7.2v7.1c0 .2 0 .4-.4.4h-3.7c-.4 0-.4-.2-.4-.4v-7.1c0-.2.1-.4.4-.4h3.7c.3 0 .4.2.4.4"/><path d="m118.1 18.6c1.2-.3 1.9-1.2 1.9-2.5v-2.7c0-1.7-1-2.6-2.9-2.6h-6.9v12.5h2.8v-4.6h2.2l2.4 4.6h3l-2.5-4.7m-5.2-5.5h3.9c.4 0 .4.2.4.4v2.5c0 .2-.1.4-.4.4h-3.9v-3.3"/><path d="m126.2 20.3h4.3l1 3h3l-4.6-12.5h-3l-4.6 12.5h2.9l1-3m.8-2.3l1.4-4.1 1.4 4.1h-2.8"/><path d="m143.7 10.8h-7.1v12.5h7.1c1.8 0 2.9-.9 2.9-2.6v-7.3c0-1.7-1-2.6-2.9-2.6m-4.3 2.3h4c.4 0 .4.2.4.4v7.1c0 .2-.1.4-.4.4h-4v-7.9"/><path d="m152.1 23.3h4.4c1.8 0 2.9-.9 2.9-2.6v-7.3c0-1.7-1-2.6-2.9-2.6h-4.4c-1.8 0-2.9.9-2.9 2.6v7.3c0 1.7 1 2.6 2.9 2.6m-.1-2.7v-7.1c0-.2.1-.4.4-.4h3.7c.4 0 .4.2.4.4v7.1c0 .2-.1.4-.4.4h-3.7c-.4 0-.4-.2-.4-.4"/><path d="m173.2 16.1l-3.4-.7c-.6-.1-.7-.2-.7-.6v-1.4c0-.2 0-.4.4-.4h3.2c.4 0 .4.1.4.4v1.4h2.7v-1.5c0-1.7-1-2.6-2.9-2.6h-3.8c-1.8 0-2.9.9-2.9 2.6v1.8c0 1.8 1.4 2.4 2.9 2.7l3.4.7c.6.1.7.2.7.6v1.6c0 .2-.1.4-.4.4h-3.5c-.4 0-.4-.1-.4-.4v-1.7h-2.7v1.7c0 1.7 1 2.6 2.9 2.6h4.1c1.8 0 2.9-.9 2.9-2.6v-1.9c0-1.9-1.4-2.4-2.9-2.7"/><path d="m188 10.8h-10v2.3h3.6v10.2h2.8v-10.2h3.6z"/><path d="m192.3 10.8l-4.6 12.5h2.9l1-3h4.3l1 3h3l-4.6-12.5h-3m2.8 7.2h-2.8l1.4-4.1 1.4 4.1"/><path d="m199.5 13.1h3.6v10.2h2.8v-10.2h3.7v-2.3h-10.1z"/><path d="m220.6 13.1v-2.3h-9.1v12.5h9.1v-2.3h-6.4v-2.9h5.3v-2.4h-5.3v-2.6z"/><path d="m68.6 39.2c0 .2-.1.4-.4.4h-3.7c-.4 0-.4-.2-.4-.4v-9.8h-2.8v9.9c0 1.7 1 2.6 2.9 2.6h4.3c1.8 0 2.9-.9 2.9-2.6v-9.9h-2.8v9.8"/><path d="m82 37.4l-5.2-8h-2.8v12.5h2.6v-8.2l5.4 8.2h2.6v-12.5h-2.6z"/><path d="m87.3 29.4h2.8v12.5h-2.8z"/><path d="m98.1 38.6l-2.9-9.2h-3l4.4 12.5h2.9l4.4-12.5h-3z"/><path d="m106 41.9h9.1v-2.3h-6.3v-2.9h5.2v-2.3h-5.2v-2.6h6.3v-2.4h-9.1z"/><path d="m127.4 34.7v-2.7c0-1.7-1-2.6-2.9-2.6h-6.9v12.5h2.8v-4.6h2.2l2.4 4.6h3l-2.5-4.7c1.3-.3 1.9-1.2 1.9-2.5m-7-2.9h3.9c.4 0 .4.2.4.4v2.5c0 .2-.1.4-.4.4h-3.9v-3.3"/><path d="m136.8 34.8l-3.4-.7c-.6-.1-.7-.2-.7-.6v-1.4c0-.2 0-.4.4-.4h3.2c.4 0 .4.1.4.4v1.4h2.7v-1.5c0-1.7-1-2.6-2.9-2.6h-3.8c-1.8 0-2.9.9-2.9 2.6v1.8c0 1.8 1.4 2.4 2.9 2.7l3.4.7c.6.1.7.2.7.6v1.6c0 .2-.1.4-.4.4h-3.5c-.4 0-.4-.1-.4-.4v-1.6h-2.7v1.7c0 1.7 1 2.6 2.9 2.6h4.1c1.8 0 2.9-.9 2.9-2.6v-1.9c0-2-1.4-2.5-2.9-2.8"/><path d="m142.3 29.4h2.8v12.5h-2.8z"/><path d="m147 31.8h3.6v10.1h2.8v-10.1h3.6v-2.4h-10z"/><path d="m163.9 34.9l-2.9-5.5h-3l4.5 8.2v4.3h2.8v-4.3l4.5-8.2h-3z"/></g><g fill="#cbc46e"><path d="m26.5 51.8c-14 0-25.3-11.4-25.3-25.3 0-14 11.4-25.3 25.3-25.3 14 0 25.3 11.4 25.3 25.3 0 13.9-11.4 25.3-25.3 25.3"/><path d="M26.5,52.9C11.9,52.9,0,41,0,26.4C0,11.9,11.9,0,26.5,0C41,0,52.9,11.9,52.9,26.4
					C52.9,41,41,52.9,26.5,52.9z"/></g><path d="m26.5 1.1c-14 0-25.4 11.4-25.4 25.3 0 14 11.4 25.4 25.4 25.4 14 0 25.3-11.4 25.3-25.4 0-13.9-11.4-25.3-25.3-25.3" fill="#004c23"/><g fill="#fff"><path d="m22.5 32.4c.7-1.1 1.4-3.4 1-4.4-.7-.3-1.5-.8-2-1.6-.5-.7-.8-1.5-1.7-1.8-.6-.2-1.2-.1-1.7.2-.8.4-1 1.5-1.1 2.3-.1 1.7.3 4.3 1 5.9.4 1.2 1.5 3.2 2.8 5.1-.4-2.9 1.3-4.9 1.7-5.7m-2.3-3.8c-.3-.6-1.2-.5-1.6-.7-.7-.4-.6-1.4 0-1.9.8-.7 2.9 1.6 2.4 3.5-.2 0-.3-.1-.8-.9"/><path d="m15.8 21.4c-.9.2-1.1 1.5-.4 2.3-.6-.1-1.6-.9-3.8-.2-.8.2-1.7.5-1.8 1.5-.1.7.9 1.5 1.5 2 .7.5 1.7.5 2.2 1.3.5.7.9 1.7 1 2.7.2 1.8.2 4.1 1.4 5.6.2-.9-.4-2.9-.4-5.5 0-1-.4-2.1-.9-2.8 1-.1 1.1.1 1.1-.3.1-.3-.1-.7-.3-1-.8-.9-1.8-.4-2.8-.7-.6-.2-1.6-.5-1.7-1.4 0-.6 1.9-.7 1.9-.7 1.5.1 1.3 1 2.4 1.1.9.1 1.2-.8 1.5-1.4.3-.9.8-2.8-.9-2.5"/><path d="m26.5 30.8c0 0 0 0 0 0-.9 0-1.3.7-2.1 1.5-1.3 1.4-4 5-2.1 6.7.9.8 2 1.3 3.6.8.4-.3.2-1.1 0-1.4-.7-1-1.9-.6-2.2-1.1-.3-.5-.1-.8.1-1.1.3-.3.7-.3 1.1-.2.7.2 1.1.4 1.5.8 0 0 0 0 0 0 .4-.4.9-.7 1.5-.8.4-.1.8-.2 1.1.2.2.2.4.6.1 1.1-.3.5-1.5.1-2.2 1.1-.2.4-.4 1.2-.1 1.4 1.6.5 2.7 0 3.6-.8 2-1.7-.7-5.3-2.1-6.7-.5-.7-1-1.4-1.8-1.5"/><path d="m41.6 23.4c-2.2-.7-3.2.2-3.8.2.7-.8.5-2.1-.4-2.3-1.7-.3-1.3 1.6-.8 2.5.3.5.6 1.5 1.5 1.4 1-.1.9-.9 2.4-1.1 0 0 1.9.1 1.9.7-.1.9-1 1.2-1.7 1.4-.9.3-2-.2-2.8.7-.2.3-.4.7-.3 1 .1.3.1.2 1.2.3-.6.7-.9 1.8-.9 2.8 0 2.6-.7 4.6-.4 5.5 1.3-1.5 1.2-3.8 1.4-5.6.1-.9.5-2 .9-2.7.5-.8 1.5-.8 2.2-1.3.6-.5 1.6-1.3 1.5-2-.3-.9-1.2-1.2-1.9-1.5"/><path d="m26.4 2.5c-13.2 0-24 10.8-24 24 0 13.2 10.8 24 24 24 13.2 0 24-10.8 24-24 0-13.3-10.8-24-24-24m14.2 41.8c0 0 0 0 0 0m.9-1.3c-.7.3-1.5.4-2.2.1-.6-.3-1-.8-1.1-1.5-.1-1 .4-2.1.9-2.8.6-1.1 2.1-3 3.8-4.2 2.4-1.8 4.1-2.3 3.5-2.7-.4-.3-2.7 1-3.2 1.2-2.6 1.3-6.1 5.1-6.5 8-.3 2 1.8 3.5 3.5 3.3-5.6 4.6-11.7 4.7-13.7 4.8-2 0-8.2-.2-13.7-4.8 1.7.2 3.8-1.3 3.5-3.3-.4-2.8-4-6.6-6.5-8-.5-.2-2.7-1.5-3.2-1.2-.6.4 1.1.9 3.5 2.7 1.7 1.3 3.2 3.1 3.8 4.2.5.8 1 1.9.9 2.8-.1.7-.5 1.2-1.1 1.5-.7.3-1.5.2-2.2-.1-1.1-.4-2.1-1.3-2.9-2.4-1.5-2-3-4.4-3.7-6.9.6 1.4 4.7 7.4 6.5 7.5 1.8.1-1.8-4.8-4.3-6.9-.6-.5-1.3-1.1-1.4-2-.1-.7.2-1.1.9-1.1 1 0 3.6 1.3 3.6 1.3-4.5-8.1 2.4-12.2-.5-14-1-.6-3.1 0-4.3.2 10.7-6.3 12.5 0 15.8 2.9.5.5 2.8 0 3.2-.5.6-.7 1.7-3.2.4-4.8-1.8-2.3-9.2-9-16.1-3.6 3.6-5.2 11.1-9 17.9-8.8 6.7-.2 14.2 3.6 17.8 8.8-6.9-5.4-14.3 1.3-16.2 3.6-1.3 1.6-.2 4.1.4 4.8.4.5 2.7 1 3.2.5 3.2-2.9 5.1-9.2 15.8-2.9-1.2-.2-3.3-.8-4.3-.2-2.9 1.8 4 5.9-.5 14 0 .1 2.6-1.3 3.7-1.3.7 0 1 .5.9 1.1-.1.9-.8 1.5-1.4 2-2.5 2.1-6.2 7-4.3 6.9 1.8-.1 5.9-6 6.5-7.5-.7 2.5-2.2 4.8-3.7 6.9-.9 1.1-1.9 2-3 2.4"/><path d="m34.8 24.8c-.5-.3-1.1-.4-1.7-.2-.9.2-1.1 1-1.7 1.8-.5.8-1.3 1.3-2 1.6-.4 1 .3 3.3 1 4.4.4.8 2 2.8 1.7 5.7 1.3-1.9 2.3-3.9 2.7-5.1.8-1.6 1.1-4.2 1-5.9 0-.8-.2-1.8-1-2.3m-.5 3.1c-.4.2-1.3.1-1.6.7-.5.8-.6.9-.8.8-.5-1.8 1.6-4.2 2.4-3.5.7.6.7 1.5 0 2"/><path d="m29.1 40.3c-.9.1-1.8.3-2.6.3-.8 0-1.7-.2-2.6-.3-.1 0-.2.1-.2.1-.5 1.1 2.4 1.7 2.8 1.7.4 0 3.4-.6 2.8-1.7 0 0-.1-.1-.2-.1"/></g></svg>